<svg width="16" height="16" xmlns="http://www.w3.org/2000/svg">
<g fill="#747474" fill-rule="evenodd">
<path d="M 6.5 10 C 6.5 10.552 6.052 11 5.5 11 C 4.948 11 4.5 10.552 4.5 10 C 4.5 9.448 4.948 9 5.5 9 C 6.052 9 6.5 9.448 6.5 10 Z"/>
<path d="M 7 6 C 7 6.552 6.552 7 6 7 C 5.448 7 5 6.552 5 6 C 5 5.448 5.448 5 6 5 C 6.552 5 7 5.448 7 6 Z"/>
<path d="M 6.5 2.5 C 6.5 2.776 6.276 3 6 3 C 5.724 3 5.5 2.776 5.5 2.5 C 5.5 2.224 5.724 2 6 2 C 6.276 2 6.5 2.224 6.5 2.5 Z"/>
<path d="M 10.5 2 C 10.5 2.276 10.276 2.5 10 2.5 C 9.724 2.5 9.5 2.276 9.5 2 C 9.5 1.724 9.724 1.5 10 1.5 C 10.276 1.5 10.5 1.724 10.5 2 Z"/>
<path d="M 2.5 9.75 C 2.5 10.026 2.276 10.25 2 10.25 C 1.724 10.25 1.5 10.026 1.5 9.75 C 1.5 9.474 1.724 9.25 2 9.25 C 2.276 9.25 2.5 9.474 2.5 9.75 Z"/>
<path d="M 6.5 13.5 C 6.5 13.776 6.276 14 6 14 C 5.724 14 5.5 13.776 5.5 13.5 C 5.5 13.224 5.724 13 6 13 C 6.276 13 6.5 13.224 6.5 13.5 Z"/>
<path d="M 10.5 12.5 C 10.5 12.776 10.276 13 10 13 C 9.724 13 9.5 12.776 9.5 12.5 C 9.5 12.224 9.724 12 10 12 C 10.276 12 10.5 12.224 10.5 12.5 Z"/>
<path d="M 14.5 2.5 C 14.5 2.776 14.276 3 14 3 C 13.724 3 13.5 2.776 13.5 2.5 C 13.5 2.224 13.724 2 14 2 C 14.276 2 14.5 2.224 14.5 2.5 Z"/>
<path d="M 13 10.063 C 13 10.339 12.776 10.563 12.5 10.563 C 12.224 10.563 12 10.339 12 10.063 C 12 9.786 12.224 9.563 12.5 9.563 C 12.776 9.563 13 9.786 13 10.063 Z"/>
<path d="M 14 6 C 14 6.276 13.776 6.5 13.5 6.5 C 13.224 6.5 13 6.276 13 6 C 13 5.724 13.224 5.5 13.5 5.5 C 13.776 5.5 14 5.724 14 6 Z"/>
<path d="M 3 6 C 3 6.276 2.776 6.5 2.5 6.5 C 2.224 6.5 2 6.276 2 6 C 2 5.724 2.224 5.5 2.5 5.5 C 2.776 5.5 3 5.724 3 6 Z"/>
<path d="M 10 9 C 10 9.552 9.552 10 9 10 C 8.448 10 8 9.552 8 9 C 8 8.448 8.448 8 9 8 C 9.552 8 10 8.448 10 9 Z"/>
<path d="M 11 5.5 C 11 6.052 10.552 6.5 10 6.5 C 9.448 6.5 9 6.052 9 5.5 C 9 4.948 9.448 4.5 10 4.5 C 10.552 4.5 11 4.948 11 5.5 Z"/>
<path d="M 2.25 13.5 C 2.25 13.776 2.026 14 1.75 14 C 1.474 14 1.25 13.776 1.25 13.5 C 1.25 13.224 1.474 13 1.75 13 C 2.026 13 2.25 13.224 2.25 13.5 Z"/>
</g>
</svg>
